<svg xmlns="http://www.w3.org/2000/svg" xmlns:xlink="http://www.w3.org/1999/xlink" xmlns:lucid="lucid" width="282" height="156"><g transform="translate(-783 -335)" lucid:page-tab-id="0_0"><path d="M784 336h28v28h-28z" stroke="#fe7070" stroke-width="2" fill="#fff"/><use xlink:href="#a" transform="matrix(1,0,0,1,784,336) translate(10 20.622222222222184)"/><path d="M812 378h112v28H812z" stroke="#fe7070" stroke-width="2" fill="#fff"/><use xlink:href="#b" transform="matrix(1,0,0,1,812,378) translate(10 20.622222222222184)"/><path d="M798 366v25a1 1 0 0 0 1 1h11" stroke="#979ea8" stroke-width="2" fill="none"/><path d="M798.98 366.03H797V365H799zM811 392.98h-1.03v-1.96H811z" stroke="#979ea8" stroke-width=".05" fill="#979ea8"/><path d="M798 366v109a1 1 0 0 0 1 1h11" stroke="#5e5e5e" stroke-width="2" fill="none"/><path d="M798.98 366.03H797V365H799zM811 476.98h-1.03v-1.96H811z" stroke="#5e5e5e" stroke-width=".05" fill="#5e5e5e"/><path d="M826 408v26h12" stroke="#5e5e5e" stroke-width="2" fill="none"/><path d="M826.98 408.03H825V407H827zM839 434.98h-1.03v-1.96H839z" stroke="#5e5e5e" stroke-width=".05" fill="#5e5e5e"/><defs><path fill="#fe7070" d="M11 179l300-972h66L78 179H11" id="c"/><use transform="matrix(0.017777777777777747,0,0,0.017777777777777747,0,0)" xlink:href="#c" id="a"/><path fill="#fe7070" d="M277 13C141 13 53-90 53-271c-5-249 231-368 388-222-8-95-4-201-5-303h91V0h-74c-4-21-4-46-11-64-43 42-100 77-165 77zm20-76c50 0 94-25 139-75v-285c-123-120-291-42-289 151 0 131 54 209 150 209" id="d"/><path fill="#fe7070" d="M92 0v-543h91V0H92zm46-655c-36 0-63-25-63-59 0-37 27-59 63-59s63 22 63 59c0 34-27 59-63 59" id="e"/><path fill="#fe7070" d="M92 0v-543h75l8 99h3c50-86 117-137 212-101l-17 80c-18-7-31-9-53-9-45 0-101 32-137 125V0H92" id="f"/><path fill="#fe7070" d="M88 0v-76h163v-547H121v-58c65-12 112-29 152-52h70v657h147V0H88" id="g"/><g id="b"><use transform="matrix(0.017777777777777747,0,0,0.017777777777777747,0,0)" xlink:href="#d"/><use transform="matrix(0.017777777777777747,0,0,0.017777777777777747,11.022222222222203,0)" xlink:href="#e"/><use transform="matrix(0.017777777777777747,0,0,0.017777777777777747,15.911111111111083,0)" xlink:href="#f"/><use transform="matrix(0.017777777777777747,0,0,0.017777777777777747,22.80888888888885,0)" xlink:href="#g"/></g></defs></g></svg>