<svg xmlns="http://www.w3.org/2000/svg" xmlns:xlink="http://www.w3.org/1999/xlink" xmlns:lucid="lucid" width="381" height="262"><g transform="translate(-800.0000000000001 -159)" lucid:page-tab-id="0_0"><path d="M880 240h120v40H880z" stroke="#54c45e" stroke-width="2" fill="#fff"/><use xlink:href="#a" transform="matrix(1,0,0,1,880,240) translate(10 28.277777777777747)"/><path d="M940 300h120v40H940z" stroke="#54c45e" stroke-width="2" fill="#fff"/><use xlink:href="#b" transform="matrix(1,0,0,1,939.9999999999998,300) translate(10 28.277777777777747)"/><path d="M1060 300h40v40h-40z" stroke="#54c45e" stroke-width="2" fill="#fff"/><use xlink:href="#c" transform="matrix(1,0,0,1,1059.9999999999998,300) translate(13.344444444444452 28.277777777777747)"/><path d="M880 360h120v40H880z" stroke="#54c45e" stroke-width="2" fill="#fff"/><use xlink:href="#d" transform="matrix(1,0,0,1,880,360) translate(10 28.277777777777747)"/><path d="M1000 360h40v40h-40z" stroke="#54c45e" stroke-width="2" fill="#fff"/><use xlink:href="#e" transform="matrix(1,0,0,1,1000,360) translate(9.200000000000014 28.277777777777747)"/><path d="M1040 360h120v40h-120z" stroke="#54c45e" stroke-width="2" fill="#fff"/><use xlink:href="#f" transform="matrix(1,0,0,1,1040,360) translate(10 28.277777777777747)"/><path d="M821 180h40v40h-40z" stroke="#54c45e" stroke-width="2" fill="#fff"/><use xlink:href="#g" transform="matrix(1,0,0,1,821.0000000000001,180) translate(10 28.277777777777747)"/><path d="M841 222v37h37" stroke="#54c45e" stroke-width="2" fill="none"/><path d="M841.98 222.03H840V221H842zM879 259.98h-1.03v-1.96H879z" stroke="#54c45e" stroke-width=".05" fill="#54c45e"/><path d="M900 282v38h38" stroke="#54c45e" stroke-width="2" fill="none"/><path d="M900.98 282.03H899V281H901zM939 320.98h-1.03v-1.96H939z" stroke="#54c45e" stroke-width=".05" fill="#54c45e"/><path d="M841 222v158h37" stroke="#54c45e" stroke-width="2" fill="none"/><path d="M841.98 222.03H840V221H842zM879 380.98h-1.03v-1.96H879z" stroke="#54c45e" stroke-width=".05" fill="#54c45e"/><defs><path fill="#54c45e" d="M277 13C141 13 53-90 53-271c-5-249 231-368 388-222-8-95-4-201-5-303h91V0h-74c-4-21-4-46-11-64-43 42-100 77-165 77zm20-76c50 0 94-25 139-75v-285c-123-120-291-42-289 151 0 131 54 209 150 209" id="h"/><path fill="#54c45e" d="M92 0v-543h91V0H92zm46-655c-36 0-63-25-63-59 0-37 27-59 63-59s63 22 63 59c0 34-27 59-63 59" id="i"/><path fill="#54c45e" d="M92 0v-543h75l8 99h3c50-86 117-137 212-101l-17 80c-18-7-31-9-53-9-45 0-101 32-137 125V0H92" id="j"/><path fill="#54c45e" d="M88 0v-76h163v-547H121v-58c65-12 112-29 152-52h70v657h147V0H88" id="k"/><g id="a"><use transform="matrix(0.022222222222222195,0,0,0.022222222222222195,0,0)" xlink:href="#h"/><use transform="matrix(0.022222222222222195,0,0,0.022222222222222195,13.77777777777776,0)" xlink:href="#i"/><use transform="matrix(0.022222222222222195,0,0,0.022222222222222195,19.888888888888864,0)" xlink:href="#j"/><use transform="matrix(0.022222222222222195,0,0,0.022222222222222195,28.511111111111077,0)" xlink:href="#k"/></g><path fill="#54c45e" d="M263 13c-116 0-155-72-155-181v-301H27v-69l85-5 11-152h76v152h147v74H199v303c0 67 21 105 84 105 19 0 44-7 62-14l18 68c-31 10-67 20-100 20" id="l"/><path fill="#54c45e" d="M311 13C167 13 51-92 51-271c0-176 119-286 245-286 154-3 234 132 212 307H142c6 116 77 190 180 190 53 0 96-16 136-43l33 60c-48 31-106 56-180 56zM141-315h291c0-110-50-169-135-169-77 0-145 62-156 169" id="m"/><path fill="#54c45e" d="M92 0v-543h75l8 79h3c47-52 104-93 169-93 83 0 128 40 150 104 56-61 113-104 179-104 112 0 165 74 165 213V0h-91v-332c0-102-32-145-101-145-42 0-86 27-137 83V0h-91v-332c0-102-32-145-101-145-41 0-87 27-137 83V0H92" id="n"/><g id="b"><use transform="matrix(0.022222222222222195,0,0,0.022222222222222195,0,0)" xlink:href="#i"/><use transform="matrix(0.022222222222222195,0,0,0.022222222222222195,6.111111111111104,0)" xlink:href="#l"/><use transform="matrix(0.022222222222222195,0,0,0.022222222222222195,14.488888888888871,0)" xlink:href="#m"/><use transform="matrix(0.022222222222222195,0,0,0.022222222222222195,26.79999999999997,0)" xlink:href="#n"/><use transform="matrix(0.022222222222222195,0,0,0.022222222222222195,47.37777777777772,0)" xlink:href="#k"/></g><path fill="#54c45e" d="M253 0v-655H31v-78h537v78H346V0h-93" id="o"/><use transform="matrix(0.022222222222222195,0,0,0.022222222222222195,0,0)" xlink:href="#o" id="c"/><path fill="#54c45e" d="M241 5C155 32 92-8 92-108v-688h91v694c3 37 15 43 45 37" id="p"/><path fill="#54c45e" d="M92 0v-543h75l8 78h3c52-51 108-92 182-92 114 0 166 74 166 213V0h-91v-332c0-102-31-145-103-145-56 0-94 28-149 83V0H92" id="q"/><path fill="#54c45e" d="M92 0v-796h90c1 179-3 364 2 540l233-287h101L336-325 542 0h-99L284-262 182-143V0H92" id="r"/><g id="d"><use transform="matrix(0.022222222222222195,0,0,0.022222222222222195,0,0)" xlink:href="#p"/><use transform="matrix(0.022222222222222195,0,0,0.022222222222222195,6.333333333333326,0)" xlink:href="#i"/><use transform="matrix(0.022222222222222195,0,0,0.022222222222222195,12.444444444444429,0)" xlink:href="#q"/><use transform="matrix(0.022222222222222195,0,0,0.022222222222222195,26.02222222222219,0)" xlink:href="#r"/><use transform="matrix(0.022222222222222195,0,0,0.022222222222222195,38.28888888888884,0)" xlink:href="#k"/></g><path fill="#54c45e" d="M80-258v-64h297v64H80" id="s"/><path fill="#54c45e" d="M38-146v-80c129-47 258-95 386-143v-4c-128-48-257-96-386-143v-79l479 188v73" id="t"/><g id="e"><use transform="matrix(0.022222222222222195,0,0,0.022222222222222195,0,0)" xlink:href="#s"/><use transform="matrix(0.022222222222222195,0,0,0.022222222222222195,9.266666666666655,0)" xlink:href="#t"/></g><path fill="#54c45e" d="M11 179l300-972h66L78 179H11" id="u"/><g id="f"><use transform="matrix(0.022222222222222195,0,0,0.022222222222222195,0,0)" xlink:href="#u"/><use transform="matrix(0.022222222222222195,0,0,0.022222222222222195,8.7111111111111,0)" xlink:href="#h"/><use transform="matrix(0.022222222222222195,0,0,0.022222222222222195,22.48888888888886,0)" xlink:href="#i"/><use transform="matrix(0.022222222222222195,0,0,0.022222222222222195,28.59999999999996,0)" xlink:href="#j"/><use transform="matrix(0.022222222222222195,0,0,0.022222222222222195,37.22222222222217,0)" xlink:href="#k"/></g><use transform="matrix(0.022222222222222195,0,0,0.022222222222222195,0,0)" xlink:href="#u" id="g"/></defs></g></svg>